# xmcd
#
# Track frame offsets: 
#        150
#        15701
#        33288
#        55131
#        71696
#        93164
#        122835
#        144012
#        157586
#        176569
#        195815
#        230530
#
# Disc length: 3327 seconds
#
# Revision: 0
# Processed by: cddbd v1.5.2PL0 Copyright (c) Steve Scherf et al.
# Submitted via: ExactAudioCopy v1.3
#
DISCID=880cfd0c
DTITLE=NIL - The Velvet touch of tongue
DYEAR=2012
DGENRE=
TTITLE0=Ugly,silly,nasty,queen of make believe
TTITLE1=Fated soul
TTITLE2=A curse on you
TTITLE3=Loyalty
TTITLE4=The jaws of sickness
TTITLE5=Mrs. Blame and disgrace
TTITLE6=For you
TTITLE7=B.a.s.s.
TTITLE8=The velvet touch of tongue
TTITLE9=From nothing
TTITLE10=Numb for a while
TTITLE11=Bonus track
EXTD=
EXTT0=
EXTT1=
EXTT2=
EXTT3=
EXTT4=
EXTT5=
EXTT6=
EXTT7=
EXTT8=
EXTT9=
EXTT10=
EXTT11=
PLAYORDER=
